{
  "accessors": [
    {
      "bufferView": 3,
      "componentType": 5126,
      "count": 9652,
      "max": [
        10.293923377990723,
        10.397333145141602,
        6.536131381988525
      ],
      "min": [
        -11.879172325134277,
        -8.881784197001252e-16,
        -6.536130428314209
      ],
      "type": "VEC3"
    },
    {
      "bufferView": 3,
      "byteOffset": 115824,
      "componentType": 5126,
      "count": 9652,
      "max": [
        1.0,
        1.0,
        1.0
      ],
      "min": [
        -1.0,
        -1.0,
        -1.0
      ],
      "type": "VEC3"
    },
    {
      "bufferView": 4,
      "componentType": 5126,
      "count": 9652,
      "max": [
        1.0,
        0.9996744394302368,
        1.0,
        1.0
      ],
      "min": [
        -1.0,
        -0.9997175335884094,
        -1.0,
        -1.0
      ],
      "type": "VEC4"
    },
    {
      "bufferView": 2,
      "componentType": 5126,
      "count": 9652,
      "max": [
        0.9965681433677673,
        0.9967108964920044
      ],
      "min": [
        0.0031170526053756475,
        0.003160561667755246
      ],
      "type": "VEC2"
    },
    {
      "bufferView": 1,
      "componentType": 5125,
      "count": 52392,
      "type": "SCALAR"
    },
    {
      "bufferView": 3,
      "byteOffset": 231648,
      "componentType": 5126,
      "count": 3145,
      "max": [
        4.104235649108887,
        12.973108291625977,
        4.104237079620361
      ],
      "min": [
        -4.1042375564575195,
        9.289143562316895,
        -4.104236125946045
      ],
      "type": "VEC3"
    },
    {
      "bufferView": 3,
      "byteOffset": 269388,
      "componentType": 5126,
      "count": 3145,
      "max": [
        0.9988858699798584,
        1.0,
        0.9988857507705688
      ],
      "min": [
        -0.9988858103752136,
        -1.0,
        -0.9988858103752136
      ],
      "type": "VEC3"
    },
    {
      "bufferView": 4,
      "byteOffset": 154432,
      "componentType": 5126,
      "count": 3145,
      "max": [
        1.0,
        0.9822580814361572,
        1.0,
        1.0
      ],
      "min": [
        -1.0,
        -0.9822725057601929,
        -0.9999952912330627,
        1.0
      ],
      "type": "VEC4"
    },
    {
      "bufferView": 2,
      "byteOffset": 77216,
      "componentType": 5126,
      "count": 3145,
      "max": [
        0.9952768087387085,
        0.9955743551254272
      ],
      "min": [
        0.0031170526053756475,
        0.26353898644447327
      ],
      "type": "VEC2"
    },
    {
      "bufferView": 1,
      "byteOffset": 209568,
      "componentType": 5125,
      "count": 15546,
      "type": "SCALAR"
    },
    {
      "bufferView": 5,
      "componentType": 5126,
      "count": 3,
      "max": [
        1.0,
        0.0,
        0.0,
        0.0,
        0.0,
        1.0,
        1.0,
        0.0,
        0.0,
        0.0,
        1.0,
        0.0,
        0.0,
        0.0,
        0.0,
        1.0
      ],
      "min": [
        1.0,
        0.0,
        0.0,
        0.0,
        0.0,
        6.123234262925839e-17,
        0.0,
        0.0,
        0.0,
        -1.0,
        6.123234262925839e-17,
        0.0,
        0.0,
        -6.685197477688317e-16,
        -10.917756080627441,
        1.0
      ],
      "type": "MAT4"
    },
    {
      "bufferView": 0,
      "componentType": 5123,
      "count": 9652,
      "type": "VEC4"
    },
    {
      "bufferView": 4,
      "byteOffset": 204752,
      "componentType": 5126,
      "count": 9652,
      "max": [
        1.0,
        0.0,
        0.0,
        0.0
      ],
      "min": [
        1.0,
        0.0,
        0.0,
        0.0
      ],
      "type": "VEC4"
    },
    {
      "bufferView": 0,
      "byteOffset": 77216,
      "componentType": 5123,
      "count": 3145,
      "type": "VEC4"
    },
    {
      "bufferView": 4,
      "byteOffset": 359184,
      "componentType": 5126,
      "count": 3145,
      "max": [
        1.0,
        0.0,
        0.0,
        0.0
      ],
      "min": [
        1.0,
        0.0,
        0.0,
        0.0
      ],
      "type": "VEC4"
    },
    {
      "bufferView": 6,
      "componentType": 5126,
      "count": 52,
      "max": [
        4.166666507720947
      ],
      "min": [
        0.0
      ],
      "type": "SCALAR"
    },
    {
      "bufferView": 7,
      "componentType": 5126,
      "count": 52,
      "max": [
        7.014849662780762,
        3.944304526105059e-31,
        17.00946807861328
      ],
      "min": [
        -5.273559366969494e-16,
        -1.9721522630525295e-31,
        10.917756080627441
      ],
      "type": "VEC3"
    },
    {
      "bufferView": 6,
      "byteOffset": 208,
      "componentType": 5126,
      "count": 57,
      "max": [
        4.166666507720947
      ],
      "min": [
        0.0
      ],
      "type": "SCALAR"
    },
    {
      "bufferView": 8,
      "componentType": 5126,
      "count": 57,
      "max": [
        1.19215037108947e-32,
        0.6050716042518616,
        9.162078476797383e-33,
        1.0
      ],
      "min": [
        -1.2593250243247666e-32,
        -2.7755575615628914e-17,
        -1.6332167165427194e-32,
        0.7961710691452026
      ],
      "type": "VEC4"
    },
    {
      "bufferView": 6,
      "byteOffset": 436,
      "componentType": 5126,
      "count": 20,
      "max": [
        4.166666507720947
      ],
      "min": [
        0.0
      ],
      "type": "SCALAR"
    },
    {
      "bufferView": 7,
      "byteOffset": 624,
      "componentType": 5126,
      "count": 20,
      "max": [
        0.0,
        2.6840438842773438,
        0.0
      ],
      "min": [
        -0.32189998030662537,
        0.0,
        0.0
      ],
      "type": "VEC3"
    },
    {
      "bufferView": 6,
      "byteOffset": 516,
      "componentType": 5126,
      "count": 20,
      "max": [
        4.166666507720947
      ],
      "min": [
        0.0
      ],
      "type": "SCALAR"
    },
    {
      "bufferView": 8,
      "byteOffset": 912,
      "componentType": 5126,
      "count": 20,
      "max": [
        -0.7014813423156738,
        -0.0,
        0.089016392827034,
        0.7071067690849304
      ],
      "min": [
        -0.7071067690849304,
        -0.089016392827034,
        0.0,
        0.7014813423156738
      ],
      "type": "VEC4"
    }
  ],
  "animations": [
    {
      "channels": [
        {
          "sampler": 0,
          "target": {
            "node": 11,
            "path": "translation"
          }
        },
        {
          "sampler": 1,
          "target": {
            "node": 11,
            "path": "rotation"
          }
        },
        {
          "sampler": 2,
          "target": {
            "node": 10,
            "path": "translation"
          }
        },
        {
          "sampler": 3,
          "target": {
            "node": 10,
            "path": "rotation"
          }
        }
      ],
      "name": "Take 001",
      "samplers": [
        {
          "input": 15,
          "interpolation": "LINEAR",
          "output": 16
        },
        {
          "input": 17,
          "interpolation": "LINEAR",
          "output": 18
        },
        {
          "input": 19,
          "interpolation": "LINEAR",
          "output": 20
        },
        {
          "input": 21,
          "interpolation": "LINEAR",
          "output": 22
        }
      ]
    }
  ],
  "asset": {
    "extras": {
      "author": "spicymeatballs645 (https://sketchfab.com/spicymeatballs645)",
      "license": "CC-BY-4.0 (http://creativecommons.org/licenses/by/4.0/)",
      "source": "https://sketchfab.com/3d-models/the-utah-teapot-3abee9e4162b433c941698240cd2559d",
      "title": "The Utah Teapot"
    },
    "generator": "Sketchfab-12.67.0",
    "version": "2.0"
  },
  "bufferViews": [
    {
      "buffer": 0,
      "byteLength": 102376,
      "byteStride": 8,
      "name": "shortBufferViews",
      "target": 34962
    },
    {
      "buffer": 0,
      "byteLength": 271752,
      "byteOffset": 102376,
      "name": "floatBufferViews",
      "target": 34963
    },
    {
      "buffer": 0,
      "byteLength": 102376,
      "byteOffset": 374128,
      "byteStride": 8,
      "name": "floatBufferViews",
      "target": 34962
    },
    {
      "buffer": 0,
      "byteLength": 307128,
      "byteOffset": 476504,
      "byteStride": 12,
      "name": "floatBufferViews",
      "target": 34962
    },
    {
      "buffer": 0,
      "byteLength": 409504,
      "byteOffset": 783632,
      "byteStride": 16,
      "name": "floatBufferViews",
      "target": 34962
    },
    {
      "buffer": 0,
      "byteLength": 192,
      "byteOffset": 1193136,
      "name": "floatBufferViews"
    },
    {
      "buffer": 0,
      "byteLength": 596,
      "byteOffset": 1193328,
      "name": "floatBufferViews"
    },
    {
      "buffer": 0,
      "byteLength": 864,
      "byteOffset": 1193924,
      "byteStride": 12,
      "name": "floatBufferViews"
    },
    {
      "buffer": 0,
      "byteLength": 1232,
      "byteOffset": 1194788,
      "byteStride": 16,
      "name": "floatBufferViews"
    }
  ],
  "buffers": [
    {
      "byteLength": 1196020,
      "uri": "scene.bin"
    }
  ],
  "images": [
    {
      "uri": "textures/utahTeapot_baseColor.png"
    },
    {
      "uri": "textures/utahTeapot_metallicRoughness.png"
    },
    {
      "uri": "textures/utahTeapot_normal.png"
    }
  ],
  "materials": [
    {
      "doubleSided": true,
      "name": "utahTeapot",
      "normalTexture": {
        "index": 2
      },
      "pbrMetallicRoughness": {
        "baseColorTexture": {
          "index": 0
        },
        "metallicFactor": 0.0,
        "metallicRoughnessTexture": {
          "index": 1
        }
      }
    }
  ],
  "meshes": [
    {
      "name": "utahTeapot_utahTeapot_0",
      "primitives": [
        {
          "attributes": {
            "JOINTS_0": 11,
            "NORMAL": 1,
            "POSITION": 0,
            "TANGENT": 2,
            "TEXCOORD_0": 3,
            "WEIGHTS_0": 12
          },
          "indices": 4,
          "material": 0,
          "mode": 4
        }
      ]
    },
    {
      "name": "utahTeapot_cap_utahTeapot_0",
      "primitives": [
        {
          "attributes": {
            "JOINTS_0": 13,
            "NORMAL": 6,
            "POSITION": 5,
            "TANGENT": 7,
            "TEXCOORD_0": 8,
            "WEIGHTS_0": 14
          },
          "indices": 9,
          "material": 0,
          "mode": 4
        }
      ]
    }
  ],
  "nodes": [
    {
      "children": [
        1
      ],
      "matrix": [
        1.0,
        0.0,
        0.0,
        0.0,
        0.0,
        2.220446049250313e-16,
        -1.0,
        0.0,
        0.0,
        1.0,
        2.220446049250313e-16,
        0.0,
        0.0,
        0.0,
        0.0,
        1.0
      ],
      "name": "Sketchfab_model"
    },
    {
      "children": [
        2
      ],
      "matrix": [
        1.0,
        0.0,
        0.0,
        0.0,
        0.0,
        0.0,
        1.0,
        0.0,
        0.0,
        -1.0,
        0.0,
        0.0,
        0.0,
        0.0,
        0.0,
        1.0
      ],
      "name": "utahTeapot.FBX"
    },
    {
      "children": [
        3
      ],
      "name": "Object_2"
    },
    {
      "children": [
        4
      ],
      "name": "RootNode"
    },
    {
      "children": [
        5,
        7,
        9,
        6,
        8,
        12,
        13
      ],
      "name": "Object_4"
    },
    {
      "children": [
        10
      ],
      "name": "_rootJoint"
    },
    {
      "matrix": [
        1.0,
        0.0,
        0.0,
        0.0,
        0.0,
        6.123233995736766e-17,
        -1.0,
        0.0,
        0.0,
        1.0,
        6.123233995736766e-17,
        0.0,
        -0.7926244735717773,
        5.198666572570801,
        1.0502312764856502e-06,
        1.0
      ],
      "name": "Object_6"
    },
    {
      "mesh": 0,
      "name": "Object_7",
      "skin": 0
    },
    {
      "matrix": [
        1.0,
        0.0,
        0.0,
        0.0,
        0.0,
        6.123233995736766e-17,
        -1.0,
        0.0,
        0.0,
        1.0,
        6.123233995736766e-17,
        0.0,
        -9.5367431640625e-07,
        11.131126403808594,
        1.0630774347641005e-06,
        1.0
      ],
      "name": "Object_8"
    },
    {
      "mesh": 1,
      "name": "Object_9",
      "skin": 0
    },
    {
      "children": [
        11
      ],
      "name": "root_00",
      "rotation": [
        -0.7071068286895752,
        -0.0,
        0.0,
        0.7071068286895752
      ]
    },
    {
      "name": "cap_01",
      "translation": [
        0.0,
        0.0,
        10.917756080627441
      ]
    },
    {
      "name": "utahTeapot",
      "rotation": [
        -0.7071068286895752,
        -0.0,
        0.0,
        0.7071068286895752
      ]
    },
    {
      "name": "utahTeapot_cap",
      "rotation": [
        -0.7071068286895752,
        -0.0,
        0.0,
        0.7071068286895752
      ]
    }
  ],
  "samplers": [
    {
      "magFilter": 9729,
      "minFilter": 9987,
      "wrapS": 10497,
      "wrapT": 10497
    }
  ],
  "scene": 0,
  "scenes": [
    {
      "name": "Sketchfab_Scene",
      "nodes": [
        0
      ]
    }
  ],
  "skins": [
    {
      "inverseBindMatrices": 10,
      "joints": [
        5,
        10,
        11
      ],
      "skeleton": 5
    }
  ],
  "textures": [
    {
      "sampler": 0,
      "source": 0
    },
    {
      "sampler": 0,
      "source": 1
    },
    {
      "sampler": 0,
      "source": 2
    }
  ]
}
